<svg version="1.2" xmlns="http://www.w3.org/2000/svg" viewBox="205.95597931385151 107.96396723224643 391.62099229456857 582.7813512654023" width="393" height="584">
	<title>mfy</title>
	<defs>
		<linearGradient id="g1" x2="1" gradientUnits="userSpaceOnUse" gradientTransform="matrix(345.037,0,0,537.57,228,131.43)">
			<stop offset="0" stop-color="#b43326"/>
			<stop offset=".5" stop-color="#f59326"/>
			<stop offset="1" stop-color="#b43326"/>
		</linearGradient>
	</defs>
	<style>
		.s0 { fill: url(#g1) } 
		.s1 { fill: #000000;stroke: #000000;paint-order:stroke fill markers;stroke-miterlimit:100;stroke-width: 24 } 
		.s2 { fill: #000000;stroke: #000000;stroke-miterlimit:100;stroke-width: 7 } 
	</style>
	<g id="Other">
		<path id="Mythic" fill-rule="evenodd" class="s0" d="m400.5 669c-95.4 0-172.5-71.3-172.5-159.5 0-50.4 41.6-99.6 64.5-124.5-22.8-31.1-55.2-225.6 17.3-242 109.8 18.7 34 209.9 81.9 220.7 11.9 1.1 12.6-2 24.1 0.4 0-28.9-18.8-200.4 70-232.7 97.9 103.5-2.6 225.2 10.6 238.1 38.4 37.2 78.1 99.8 76.6 140-4.4 116.1-77.1 159.5-172.5 159.5z"/>
		<path id="Outline" class="s1" d="m408.5 674.9c-7.1-0.5-14.9-1.3-17.2-1.9-2.3-0.5-5.9-1-8.1-1-4.9 0-29.7-3.7-33.6-5-1.6-0.6-4-1-5.3-1-1.3 0-3.1-0.4-4.1-1-0.9-0.5-5.7-2.4-10.7-4.1-4.9-1.7-10.8-3.8-13-4.6-5.1-1.8-27.7-13.1-28.5-14.2-0.3-0.4-2.6-2-5.2-3.5-2.7-1.5-4.8-3.2-4.8-3.6 0-0.4-1.3-1.3-2.9-1.8-2.7-1-14.1-11.4-14.1-13 0-0.4-1.3-1.5-2.9-2.5-4.1-2.4-11.1-9.9-11.1-11.9 0-1-2.2-5.1-5-9.2-2.7-4-5.7-9.6-6.6-12.2-0.9-2.7-2.2-5.6-2.9-6.4-1.6-1.9-7.2-21.5-10.5-37-1.6-7.3-0.7-36.9 1.4-47.5 0.9-4.4 2-10.2 2.6-13 1.5-7.6 5.4-19.7 7.2-22.5 0.9-1.4 1.9-4 2.3-5.9 0.7-3.3 5.9-14.7 9.4-20.6 10.5-17.5 20.9-31.6 25-33.9 0.9-0.5 3.6-3.1 6-5.7l4.3-4.8-4.5-12.3c-2.4-6.8-5.5-15.9-6.7-20.3-1.3-4.4-2.9-9.4-3.7-11.2-1.5-3.6-5-16.5-6.5-23.8-0.5-2.7-1.9-9.7-3-15.4-2.6-13.2-3.6-48.8-1.8-60.7 0.7-4.4 1.4-9.7 1.6-11.9 0.6-7.9 2.3-17.1 4.3-24 1.1-3.8 2.1-8.4 2.1-10.1 0-1.8 2.1-8.1 4.6-14 2.5-6 5-12.2 5.6-13.9 0.6-1.6 2.2-4.5 3.5-6.3 1.3-1.9 2.3-4.1 2.3-4.8 0-0.8 1.1-2.4 2.5-3.6 1.4-1.2 2.5-2.9 2.5-3.8 0-0.9 1.5-3.1 3.3-4.8 1.7-1.6 4.3-4.3 5.7-5.8 1.4-1.5 5-3.9 8-5.3 4.5-2.1 7-2.6 13.5-2.6 8.5 0 15.7 1.7 19 4.6 1.1 0.9 2.9 2 4.1 2.3 3.8 1.1 15.2 13.5 20.4 22 2.7 4.6 5 8.9 5 9.6 0 0.6 0.9 2.4 1.9 3.9 1 1.4 2.4 4.5 3 6.8 0.6 2.3 1.5 4.5 2 4.7 0.5 0.3 1.2 2.3 1.5 4.3 0.4 2.1 1.3 5.6 2.1 7.8 0.7 2.2 2 8.3 2.9 13.5 0.8 5.2 2.3 14 3.2 19.5 1.5 8.7 2.3 16.1 3.8 32 0.2 2.2 0.7 15.4 1.1 29.3 0.4 13.9 1.2 25.5 1.6 25.8 0.5 0.3 0.5 1.3-0.1 2.4-0.5 1-0.9 4.9-0.8 8.6 0 3.8-0.2 10.1-0.7 13.9-0.6 5.5-0.4 7.3 0.6 8.1 0.8 0.6 5.3 1.4 10 1.8 7 0.6 9 0.4 10.2-0.8 1.5-1.5 2.6-11.3 2.7-24.6 0.1-14.7 2.9-53.4 5-70 1.3-9.7 4.9-31 5.5-32 0.2-0.4 0.9-4.1 1.5-8.1 0.5-4.1 2.2-11.4 3.6-16.4 1.4-4.9 3.2-11.2 3.9-14 4.3-15 6.9-20.9 13.5-30.8 2.5-3.8 5-7.6 5.5-8.6 4.2-7.2 15.8-16.6 25.5-20.6 5.6-2.4 7.4-2.7 13.5-2.2 14.6 1.1 24.1 9.3 34 29.2 3.6 7.2 6.5 13.7 6.5 14.4 0 0.7 1.1 4.5 2.4 8.4 6.7 20 8.9 31.7 8.9 47.7 0.1 21.8-1.5 53.5-2.8 56.5-0.7 1.7-1.5 5.7-1.9 9-0.4 3.3-1.6 8.6-2.7 11.7-1 3.2-1.9 6.5-1.9 7.4 0 2.8-3 12.5-5.6 18.2-1.3 2.9-2.4 5.9-2.4 6.8 0 0.8-1.1 3.6-2.5 6.2-1.4 2.6-2.5 5.5-2.5 6.4 0 0.9-1.1 3.4-2.5 5.4-1.4 2-2.5 4.6-2.5 5.7 0 1.2-1.1 3.7-2.4 5.6-1.4 2-2.8 4.8-3.1 6.3-0.6 2.4-0.3 3 2.5 4.5 1.8 1 5.5 3.6 8.3 5.8 2.7 2.2 6.2 4.9 7.8 6.1 1.6 1.1 4.3 3.9 6.1 6.1 1.8 2.3 6 7.4 9.3 11.4 10.6 12.7 18.5 23.9 18.5 26.1 0 0.7 0.5 1.9 1.1 2.5 2.4 2.4 8.6 15.2 9.9 20.3 0.5 1.9 2.7 8.9 4.9 15.4 2.3 6.6 4.6 15.2 5.1 19 2.9 20.3 3.3 26.4 3.1 40.6-0.2 13.8-0.5 16.7-3.2 26.5-1.7 6.1-3.7 12.8-4.5 15-0.8 2.3-1.4 4.7-1.4 5.5 0 0.8-2 5.6-4.4 10.5-2.4 5-4.7 10.5-5 12.2-0.4 1.8-1.4 3.7-2.2 4.4-0.8 0.6-1.4 1.7-1.4 2.3 0 0.6-1.3 2.7-2.8 4.6-1.6 1.9-4.5 6-6.5 9-3.4 5.2-16.8 18.8-23.6 23.8-1.7 1.3-5.7 3.7-8.8 5.4-3.2 1.7-7.4 4.4-9.3 5.9-1.9 1.6-4.2 2.9-5.1 2.9-0.8 0-4.8 1.6-8.8 3.5-3.9 1.9-7.9 3.5-8.9 3.5-1 0-2.7 0.6-3.8 1.4-1.1 0.8-3.8 1.8-6 2.2-2.1 0.3-6.1 1.5-8.9 2.4-2.7 1-9 2.5-14 3.4-4.9 1-10.6 2.1-12.7 2.7-2.2 0.6-4.5 0.6-6.1 0-1.5-0.6-4-0.6-6.3 0-2.2 0.4-4.1 0.8-4.4 0.7-0.3 0-6.3-0.5-13.5-0.9zm35-15.5c14.1-2.1 37.5-9.5 51-16 4.3-2.1 9.6-5.4 14.6-9.1 2.4-1.8 6.7-4.7 9.4-6.6 6.3-4.2 18.2-16.1 20.2-20.2 0.9-1.6 2.1-3.7 2.8-4.5 3.4-3.9 15.8-30.3 19-40.3 6.5-20.5 8.2-50.7 4-69.2-0.9-3.8-2-8.6-2.5-10.5-2.1-9.2-6.3-20.3-14.7-39-2.8-6.1-8.4-15-10.7-16.9-0.9-0.8-1.6-1.9-1.6-2.6 0-0.7-2-3.5-4.5-6.3-2.5-2.7-4.5-5.4-4.5-5.8 0-1.1-14.2-15.4-15.2-15.4-0.4 0-2.9-2-5.5-4.5-2.5-2.5-5.2-4.5-5.9-4.5-0.7 0-2.6-1.1-4.1-2.5-8.7-7.9-8.3-7.3-8.3-13.4 0-4.5 0.6-6.6 2.8-10.2 10.9-17.4 21.5-45.7 27.8-73.9 4.9-22.2 6.9-57 4.3-75.6-1.4-10.2-6.1-27.9-8.8-33.1-1.1-2.3-2.1-4.7-2.1-5.3 0-0.6-2.2-5.8-4.9-11.5-6.7-14.1-14.8-22.8-22.1-23.6-7.2-0.8-17.8 5.9-25.7 16.1-4.9 6.4-12.3 19.7-16.5 29.6-3.8 9-9.8 36.5-14.7 67.4-5.8 36.2-6.3 42.6-6.5 81.7-0.1 23.1-0.5 34.6-1.3 35.4-1.2 1.2-10.3 0.9-25.8-1-5.5-0.7-12.2-1.4-15-1.7-2.7-0.3-5.9-1.2-7-2-2.2-1.7-2.1 1.5-1.3-43.4 0.3-12.9 0.1-28-0.3-33.5-0.5-5.5-1.3-16.7-1.9-25-0.6-8.2-1.4-17.7-2-21-4.8-31-5.3-33.2-9.5-46-4.2-12.5-11.8-28.8-15-32.1-0.5-0.6-2.4-2.6-4.1-4.5-6.4-7.2-17.9-13.9-23.6-13.9-5.9 0.1-11.7 4.5-19.5 14.8-3.7 4.8-12.2 21.7-14.2 27.9-10.4 32.9-13.7 55.6-12.6 86.8 0.6 16.3 1.1 20.7 3.7 31 1.6 6.6 3.6 15.2 4.4 19 0.7 3.9 2.1 9.5 3 12.5 0.8 3 2 6.9 2.4 8.5 4.6 15.6 7.7 24 11.8 32.2 5.7 11.1 4 18.6-5.6 25.1-8.4 5.7-22.8 22.4-27 31.2-1.2 2.5-3.2 6-4.3 7.8-1.2 1.8-4.3 8.7-7 15.4-2.7 6.6-5.3 12.6-5.8 13.2-1.9 2.3-6.9 26.6-7.9 38.6-3.8 43.2 15.5 86.8 50.3 113.7 6.7 5.1 32.2 19.3 34.8 19.3 0.7 0 3.2 1.1 5.7 2.4 2.5 1.3 7 3.1 10 4.1 3 1 6 2.1 6.5 2.5 0.6 0.4 3.3 1.1 6 1.5 2.8 0.4 7.5 1.3 10.5 2.1 6 1.6 12.5 2.6 33 4.9 23.5 2.6 33.2 2.6 51.5-0.1z"/>
		<path id="Mouth" class="s2" d="m419 610.4c-8.9-2.8-9.6-2.9-14.6-0.8-4.7 2-16.1 1.6-17.5-0.7-1.6-2.6-1.1-9.7 0.9-10.8 1.4-0.8 1.5-1.2 0.5-2.2-2-2-1.6-10.3 0.5-12.2 3.1-2.9 9.9-2.2 16.6 1.7l5.9 3.3 6.3-2.8c7.8-3.6 15.7-4 17.4-1 1.5 3 1.2 9.7-0.5 11.1-1.4 1.1-1.3 1.4 0.5 2.7 1.6 1.1 2 2.5 2 7.2 0 5.7-0.1 5.9-3.1 6.5-4.8 0.9-6.8 0.7-14.9-2z"/>
		<path id="Eye Right" class="s2" d="m487.7 548.6c-4.4-4.1-5-16.1-1-21.5 1.7-2.3 2.8-2.6 8.4-2.9 8.4-0.4 10.4 0.2 11.7 3.5 3.2 8.3 2.6 16.7-1.5 20.7-2.2 2.2-3.4 2.6-8.8 2.6-5.2 0-6.6-0.4-8.8-2.4z"/>
		<path id="Eye Left" class="s2" d="m313.3 548c-3.7-2.2-5.3-6.7-5.3-15.3 0-5.1 0.4-6.2 2.9-8.8 2.6-2.6 3.6-2.9 9-2.9 5.2 0 6.5 0.4 9.1 2.8 2.7 2.4 3.1 3.5 3.6 10.2 0.6 8.7-1.3 14-5.6 15.1-4.9 1.3-10.5 0.9-13.7-1.1z"/>
	</g>
</svg>